<?xml version="1.0" encoding="UTF-8" standalone="no"?>
<!-- Created with Inkscape (http://www.inkscape.org/) -->

<svg
   version="1.1"
   id="svg1"
   width="511"
   height="512"
   viewBox="0 0 511 512"
   sodipodi:docname="e0eb16854bdbb4f03a1fb863510fab46.png"
   xmlns:inkscape="http://www.inkscape.org/namespaces/inkscape"
   xmlns:sodipodi="http://sodipodi.sourceforge.net/DTD/sodipodi-0.dtd"
   xmlns="http://www.w3.org/2000/svg"
   xmlns:svg="http://www.w3.org/2000/svg">
  <defs
     id="defs1" />
  <sodipodi:namedview
     id="namedview1"
     pagecolor="#ffffff"
     bordercolor="#000000"
     borderopacity="0.25"
     inkscape:showpageshadow="2"
     inkscape:pageopacity="0.0"
     inkscape:pagecheckerboard="0"
     inkscape:deskcolor="#d1d1d1"
     inkscape:export-bgcolor="#ffffff00"
     showguides="false" />
  <g
     inkscape:groupmode="layer"
     inkscape:label="Image"
     id="g1">
    <path
       style="fill:#ffffff;stroke-width:5.95771"
       d="m 195.0895,507.56173 c -0.21847,-0.21864 -0.38904,-0.82168 -0.37909,-1.34048 0.0149,-0.77468 0.13113,-0.74894 0.65038,0.14418 0.64151,1.10319 0.45552,1.92332 -0.27132,1.19648 z m 1.99502,-0.0119 c 0.005,-0.26512 0.26899,-0.88436 0.58665,-1.37587 0.49771,-0.77016 0.57879,-0.75443 0.58666,0.11379 0.005,0.55407 -0.25898,1.17313 -0.58666,1.37569 -0.32767,0.20256 -0.59166,0.15133 -0.58665,-0.11379 z m 2.96973,-0.51713 c 0,-0.51117 0.2681,-0.76312 0.59577,-0.56062 0.32767,0.20256 0.59577,0.62049 0.59577,0.92881 0,0.30861 -0.2681,0.56062 -0.59577,0.56062 -0.32767,0 -0.59577,-0.41823 -0.59577,-0.92881 z m 1.86834,-0.62067 c -0.39679,-0.87084 -0.5667,-1.73805 -0.3776,-1.92714 0.1891,-0.18886 0.5123,0.30026 0.71817,1.08769 0.34823,1.33155 0.40602,1.3505 0.82815,0.27168 0.29926,-0.76473 0.46494,-0.85529 0.48657,-0.26631 0.0179,0.49151 -0.18475,1.23634 -0.45058,1.65523 -0.34853,0.5493 -0.6845,0.31993 -1.20473,-0.82169 z m 3.4936,1.02407 c 0,-0.32768 0.26809,-0.76146 0.59577,-0.96402 0.32767,-0.20256 0.59577,-0.10009 0.59577,0.22758 0,0.32768 -0.2681,0.76146 -0.59577,0.96402 -0.32768,0.20256 -0.59577,0.10009 -0.59577,-0.22758 z m 1.80398,-0.92017 c -0.88529,-2.32845 -0.71008,-2.6951 0.35168,-0.7359 0.50402,0.93012 0.7689,1.83861 0.58856,2.01889 -0.18034,0.18052 -0.60343,-0.39678 -0.94028,-1.28299 z m 4.9783,0.58683 c -0.1813,-0.47244 -0.20394,-1.34364 -0.0507,-1.93625 0.17594,-0.679 0.30474,-0.44802 0.34829,0.62472 0.0506,1.25333 0.30474,1.61168 0.96277,1.35919 0.49151,-0.18886 0.89365,-0.0834 0.89365,0.23414 0,0.90742 -1.78767,0.67358 -2.15428,-0.2818 z m 4.42565,0.4516 c 0.43009,-0.17218 0.94393,-0.15073 1.1419,0.0477 0.19798,0.19779 -0.15389,0.33899 -0.78195,0.31278 -0.69404,-0.0298 -0.83521,-0.1698 -0.35996,-0.35985 z m 5.56291,-1.27507 c -0.0717,-1.59041 0.11588,-1.94013 0.95334,-1.77754 0.57343,0.11141 1.04968,0.60012 1.05834,1.08627 0.009,0.48614 0.26119,1.28603 0.56122,1.77754 0.46458,0.76121 0.40125,0.77682 -0.42717,0.10545 -0.53494,-0.43372 -0.82581,-1.17081 -0.64639,-1.63837 0.17938,-0.46768 0.0471,-0.85011 -0.29378,-0.85011 -0.34096,0 -0.73162,0.73727 -0.86813,1.63837 -0.22598,1.49157 -0.25618,1.46095 -0.33744,-0.34137 z m 3.921,0.44266 c 0.21066,-0.80561 0.48072,-1.07567 0.62946,-0.62944 0.14328,0.42955 -0.0226,1.06471 -0.36896,1.41091 -0.44212,0.44206 -0.51963,0.20971 -0.26047,-0.78147 z m 4.06698,0.69907 c -0.18361,-0.29729 0.20269,-0.39976 0.8585,-0.22818 1.39112,0.36402 1.56696,0.76861 0.33387,0.76861 -0.47215,0 -1.00874,-0.24308 -1.19237,-0.54037 z m 3.83817,0.31159 c 0,-0.12571 0.53656,-0.36878 1.19237,-0.54036 0.6558,-0.17158 1.04212,-0.0685 0.85849,0.22818 -0.3207,0.51891 -2.05086,0.78183 -2.05086,0.31159 z m 4.65446,-0.17873 c 0.43009,-0.17218 0.94393,-0.15073 1.1419,0.0477 0.19797,0.1978 -0.15389,0.339 -0.78195,0.31278 -0.69404,-0.0298 -0.83521,-0.16979 -0.35996,-0.35984 z m 2.84741,-0.10009 c -0.20233,-0.32767 0.15704,-0.43968 0.8381,-0.26154 0.92978,0.24307 1.19237,0.0179 1.19237,-1.01877 0,-1.06697 -0.25297,-1.26435 -1.27737,-0.99643 -0.91233,0.23891 -1.09403,0.15073 -0.63581,-0.30741 1.02357,-1.0236 2.61712,-0.0655 2.40179,1.44414 -0.1972,1.38231 -1.89457,2.15038 -2.51908,1.13989 z m 3.90704,-1.17486 c -0.0717,-1.59041 0.11588,-1.94013 0.95334,-1.77754 0.57343,0.11141 1.04968,0.60012 1.05834,1.08627 0.009,0.48615 0.26119,1.28603 0.56122,1.77754 0.46458,0.76122 0.40125,0.77683 -0.42717,0.10545 -0.53494,-0.43372 -0.82581,-1.17081 -0.64639,-1.63837 0.17938,-0.46768 0.0471,-0.8501 -0.29378,-0.8501 -0.34096,0 -0.73162,0.73726 -0.86813,1.63837 -0.22598,1.49157 -0.25618,1.46094 -0.33744,-0.34138 z m 3.78325,-0.10545 c 0,-0.98302 0.20107,-1.78731 0.44683,-1.78731 0.24575,0 0.44682,0.80429 0.44682,1.78731 0,0.98302 -0.20107,1.78731 -0.44682,1.78731 -0.24576,0 -0.44683,-0.80429 -0.44683,-1.78731 z m 4.2087,0.77045 c -0.32333,-0.84909 -0.25487,-0.91755 0.33351,-0.33363 0.40715,0.40393 0.59023,0.88484 0.40679,1.06828 -0.18344,0.18349 -0.51659,-0.14716 -0.74029,-0.73477 z m 2.99528,0.50938 c -0.20626,-0.33363 0.18284,-0.43253 0.93126,-0.23711 0.8809,0.23056 1.15138,0.11915 0.85932,-0.35329 -0.23444,-0.37951 -0.11993,-0.68967 0.25439,-0.68967 1.00125,0 0.34412,1.45851 -0.75302,1.67138 -0.5157,0.10009 -1.0971,-0.0763 -1.29194,-0.39143 z m 8.78953,-0.41227 c -0.19404,-0.50581 -0.21966,-1.05249 -0.0572,-1.21519 0.1627,-0.16265 0.43884,0.25082 0.61359,0.91933 0.37123,1.41972 -0.0411,1.63891 -0.55662,0.2961 z m 2.53011,0.41227 c -0.20626,-0.33363 0.18284,-0.43253 0.93127,-0.23711 0.8809,0.23056 1.15137,0.11915 0.85931,-0.35329 -0.23443,-0.37951 -0.11993,-0.68967 0.2544,-0.68967 1.00124,0 0.34411,1.45851 -0.75303,1.67138 -0.5157,0.10009 -1.09709,-0.0763 -1.29193,-0.39143 z m 4.30185,0.10009 c 0.43008,-0.17217 0.94392,-0.15073 1.14189,0.0477 0.19798,0.19779 -0.15389,0.33899 -0.78195,0.31277 -0.69404,-0.0298 -0.83521,-0.16979 -0.35996,-0.35984 z m 3.84256,0.0298 c 0.57742,-0.16979 0.89675,-0.55645 0.70956,-0.85946 -0.18719,-0.30265 -0.034,-0.55049 0.34024,-0.55049 1.14581,0 0.26137,1.48168 -0.95751,1.60417 -0.96354,0.0965 -0.97798,0.0667 -0.0923,-0.19422 z m 5.53793,-0.16324 c -0.18362,-0.29729 0.20268,-0.39976 0.85849,-0.22818 1.39112,0.36402 1.56697,0.7686 0.33387,0.7686 -0.47214,0 -1.00873,-0.24307 -1.19236,-0.54036 z m 3.45785,-0.35329 c -0.72444,-1.88782 1.42031,-3.77635 2.43118,-2.14072 0.18361,0.29728 -0.20268,0.39976 -0.8585,0.22818 -0.92977,-0.24308 -1.19236,-0.0179 -1.19236,1.01864 0,1.03754 0.26256,1.26185 1.19236,1.01871 0.6558,-0.17158 1.04213,-0.0685 0.8585,0.22818 -0.5266,0.85207 -2.05377,0.63009 -2.43118,-0.35329 z m 3.95494,-0.79434 c 0,-1.03766 0.27323,-1.88663 0.60713,-1.88663 0.36044,0 0.44742,0.66577 0.21406,1.63837 -0.5611,2.339 -0.82119,2.41764 -0.82119,0.24844 z m -61.27844,-0.54632 c -0.6501,-1.51922 -0.63539,-1.55425 0.20227,-0.48198 0.49681,0.6361 0.90333,1.37337 0.90333,1.63837 0,0.90551 -0.40411,0.48257 -1.10559,-1.15645 z m 35.6603,1.25576 c 0,-0.31993 0.41692,-1.10158 0.92653,-1.73762 0.87362,-1.09044 0.88602,-1.07144 0.21716,0.33303 -0.8685,1.82366 -1.14369,2.16164 -1.14369,1.40465 z m 27.46527,-1.22866 c 0.43384,-0.72237 0.91698,-1.18516 1.07371,-1.02842 0.15675,0.15669 -0.19821,0.74776 -0.78874,1.31338 -1.02588,0.98261 -1.03858,0.96992 -0.28496,-0.28478 z m -94.78737,-0.1406 c 0,-0.30801 0.2681,-0.7263 0.59578,-0.92886 0.32767,-0.20257 0.59577,0.0477 0.59577,0.56062 0,0.51057 -0.2681,0.92886 -0.59577,0.92886 -0.32768,0 -0.59578,-0.25201 -0.59578,-0.56062 z m 8.9836,-0.38248 c 0.0286,-0.69408 0.16974,-0.83521 0.35997,-0.35985 0.17212,0.43015 0.15091,0.94388 -0.0471,1.14186 -0.19797,0.19779 -0.33875,-0.15371 -0.3129,-0.78195 z m 3.57463,0 c 0.0286,-0.69408 0.16973,-0.83521 0.35996,-0.35985 0.17212,0.43015 0.15091,0.94388 -0.0471,1.14186 -0.19798,0.19779 -0.33876,-0.15371 -0.3129,-0.78195 z m 63.58873,0.53619 c 0.43008,-0.17218 0.94392,-0.15073 1.14189,0.0477 0.19798,0.1978 -0.15389,0.339 -0.78195,0.31278 -0.69404,-0.0298 -0.83521,-0.16979 -0.35996,-0.35984 z m -41.7302,-0.88496 c 0.3462,-0.34614 0.98113,-0.51236 1.41094,-0.36878 0.44617,0.14894 0.17611,0.41883 -0.62946,0.62949 -0.99098,0.25916 -1.22358,0.18171 -0.78148,-0.26035 z m 4.60623,0.10009 c -0.97135,-0.41763 -1.00537,-0.51951 -0.18409,-0.55406 0.55406,-0.0238 1.17313,0.22639 1.37564,0.55406 0.42342,0.68508 0.40269,0.68508 -1.19154,0 z m 16.97947,-0.0357 c 0,-0.34734 0.26809,-0.4653 0.59577,-0.26274 0.32767,0.20256 0.59577,0.48675 0.59577,0.63098 0,0.14418 -0.2681,0.26274 -0.59577,0.26274 -0.32768,0 -0.59577,-0.28419 -0.59577,-0.63098 z m 4.62821,-0.0649 c 0.3462,-0.34615 0.98113,-0.51237 1.41094,-0.36879 0.44618,0.14895 0.17611,0.41883 -0.62946,0.6295 -0.99097,0.25916 -1.22358,0.18171 -0.78148,-0.26036 z m 11.31965,0 c 0.3462,-0.34615 0.98112,-0.51237 1.41094,-0.36879 0.44617,0.14895 0.17611,0.41883 -0.62946,0.6295 -0.99098,0.25916 -1.22359,0.18171 -0.78148,-0.26036 z m 13.70272,0 c 0.34621,-0.34615 0.98113,-0.51237 1.41094,-0.36879 0.44624,0.14895 0.17617,0.41883 -0.62946,0.6295 -0.99097,0.25916 -1.22358,0.18171 -0.78148,-0.26036 z m -62.56692,-0.29431 c 0.40959,-0.16503 1.07984,-0.16503 1.48943,0 0.40959,0.16502 0.0745,0.30026 -0.74471,0.30026 -0.81919,0 -1.15431,-0.13524 -0.74472,-0.30026 z m 41.74119,-0.0119 c 0.43009,-0.17218 0.94393,-0.15073 1.1419,0.0477 0.19797,0.1978 -0.15389,0.339 -0.78195,0.31278 -0.69404,-0.0298 -0.83521,-0.16979 -0.35997,-0.35984 z m 11.31965,0 c 0.43008,-0.17218 0.94392,-0.15073 1.14189,0.0477 0.19798,0.1978 -0.15389,0.339 -0.78195,0.31278 -0.69404,-0.0298 -0.83521,-0.16979 -0.35996,-0.35984 z m 3.53739,0.0119 c 0.40959,-0.16503 1.07983,-0.16503 1.48942,0 0.40959,0.16502 0.0745,0.30026 -0.74471,0.30026 -0.81919,0 -1.15431,-0.13524 -0.74471,-0.30026 z m -26.00265,-48.74583 c -8.94819,-2.03116 -17.05288,-5.52679 -24.69406,-10.65076 -3.96881,-2.66138 -4.13727,-2.71422 -6.57436,-2.0624 -4.94102,1.32152 -9.79371,-0.85925 -12.17946,-5.47338 -1.15037,-2.22483 -1.32716,-3.25945 -1.0483,-6.13478 0.33328,-3.43649 0.31731,-3.48041 -2.5,-6.86573 -6.51932,-7.83377 -13.10476,-17.82524 -19.42327,-29.46913 -2.16701,-3.99343 -3.07988,-5.16556 -3.84014,-4.93079 -0.54852,0.16938 -4.28193,0.84026 -8.29642,1.49082 -31.54973,5.1127 -56.2765,1.09319 -73.640172,-11.97071 -14.613739,-10.99494 -22.995608,-31.81114 -21.55202,-53.524 0.490677,-7.3804 2.372514,-18.77762 4.192874,-25.39405 0.796784,-2.89603 1.255933,-5.43189 1.020341,-5.63523 -0.235568,-0.20334 -3.24337,-2.27197 -6.683946,-4.59694 -17.920171,-12.1097 -32.316156,-27.43314 -38.994865,-41.50718 -4.949783,-10.43068 -6.619544,-18.60739 -6.121313,-29.97568 0.412214,-9.40527 2.093092,-15.65973 6.679586,-24.85425 7.042689,-14.11844 19.6307,-27.40632 36.684198,-38.72377 l 5.694746,-3.77929 -1.311047,-6.51379 c -1.609219,-7.99525 -2.631305,-17.08881 -2.631305,-23.41086 0,-4.67914 -0.03515,-4.79194 -2.04882,-6.5599 -5.403415,-4.74425 -3.866195,-14.39562 2.733986,-17.165238 1.964328,-0.82429 2.404435,-1.37297 3.157686,-3.936637 1.314926,-4.475298 5.776606,-13.22816 8.874828,-17.410519 7.628374,-10.297713 18.439803,-17.762929 32.004793,-22.099086 9.69336,-3.098562 15.57046,-3.898003 28.85522,-3.925062 13.93155,-0.0286 21.49379,0.897915 39.32087,4.816377 0.96744,0.212631 2.11107,-1.117362 6.0807,-7.071703 12.25761,-18.386052 25.76631,-31.031007 40.98519,-38.364612 8.84315,-4.2612987 14.28116,-5.6483726 23.69538,-6.0440061 12.12056,-0.509384 21.03608,1.5230644 31.80043,7.2493821 6.31879,3.361404 10.87402,6.588051 17.48611,12.386086 l 5.06405,4.440589 3.57462,-0.227584 c 2.92023,-0.18594 4.00767,0.02383 5.9401,1.146608 4.67793,2.717615 6.67032,8.084943 4.76697,12.841863 l -1.00624,2.514844 4.13987,6.404518 c 2.27694,3.522483 5.02187,7.972616 6.09987,9.889175 1.76629,3.140266 2.11427,3.450359 3.52091,3.137597 19.09367,-4.245492 29.0651,-5.376569 43.56274,-4.941406 12.39607,0.372059 18.99129,1.500955 28.38567,4.858642 18.61956,6.654884 31.19753,20.266602 36.38688,39.377382 1.51136,5.56588 1.60768,6.68917 1.63105,19.02214 0.0274,14.58397 -0.68538,19.62152 -4.76353,33.65478 -1.13465,3.90441 -2.063,7.2135 -2.063,7.35353 0,0.14 1.51516,1.39855 3.36702,2.79672 1.85185,1.39817 5.35251,4.42815 7.77923,6.7333 l 4.41222,4.19118 1.83267,-1.08259 c 5.70092,-3.36761 12.57943,-1.63728 15.38974,3.8714 2.10288,4.12197 1.25794,9.41586 -1.97901,12.39936 l -1.52332,1.40404 2.89275,5.74521 c 5.15542,10.23902 7.14957,18.15228 7.14957,28.37109 0,23.24086 -12.86049,44.33875 -38.58766,63.3038 -4.31933,3.18404 -6.03212,4.79007 -5.82552,5.46243 0.7138,2.32295 2.11706,9.22249 3.1018,15.25085 1.32282,8.09806 1.4756,26.36117 0.27662,33.06528 -5.22794,29.23173 -24.19136,47.66948 -54.92398,53.40148 -8.52034,1.58915 -28.55891,1.44714 -39.21915,-0.27793 -4.38948,-0.71032 -8.18568,-1.29149 -8.43602,-1.29149 -0.25034,0 -2.49648,3.41823 -4.99143,7.59608 -16.25218,27.21449 -35.275,44.18222 -56.63769,50.51894 -4.51134,1.33819 -6.77959,1.62613 -14.29849,1.81514 -6.38064,0.16038 -10.02631,-0.0226 -12.74675,-0.64025 z m 21.98119,-5.3298 c 21.42443,-4.59254 40.89174,-21.21246 57.69627,-49.2573 1.68979,-2.82007 3.07235,-5.37112 3.07235,-5.66898 0,-0.29788 -2.47989,-1.1724 -5.51088,-1.94343 -18.48367,-4.7019 -42.36621,-14.50429 -63.20334,-25.94129 -5.11851,-2.80942 -9.53902,-5.10804 -9.82337,-5.10804 -0.28436,0 -5.18283,2.24208 -10.8855,4.98241 -17.52104,8.41945 -31.3848,13.79175 -48.74995,18.89093 -4.39843,1.29157 -8.11624,2.46741 -8.2618,2.61299 -0.2967,0.29669 3.43319,7.25426 7.51924,14.02608 3.27058,5.42035 9.4213,14.07024 13.01935,18.3094 2.4774,2.91883 2.72878,3.06476 3.94924,2.29262 5.41981,-3.4289 13.43742,0.0447 15.26108,6.61232 0.79745,2.87182 0.77359,3.5388 -0.22699,6.34475 l -0.81346,2.28112 4.14266,2.67987 c 6.88315,4.45268 15.9908,8.12046 23.1547,9.32471 3.61503,0.60769 16.07716,0.32994 19.66043,-0.43819 z m 115.44682,-58.04799 c 7.44498,-1.59984 12.60667,-3.3414 18.26791,-6.1636 6.78429,-3.38205 9.54853,-5.39775 14.93008,-10.8871 12.4497,-12.69908 18.08634,-31.2646 16.36391,-53.89807 -0.5213,-6.85029 -3.05094,-22.36445 -3.76263,-23.07613 -0.13398,-0.13399 -1.6836,0.60737 -3.44359,1.64746 -15.22947,9.00005 -37.65775,18.17698 -58.89501,24.09794 l -6.8609,1.91283 -2.72416,10.05596 c -4.88021,18.01479 -10.89741,34.86755 -17.28214,48.40317 -1.61198,3.4174 -2.93088,6.39884 -2.93088,6.62543 0,0.39815 5.34892,1.31108 14.00061,2.38956 7.16602,0.89328 26.03323,0.24712 32.3368,-1.10745 z m -49.73432,-5.89128 c 5.53744,-12.43898 7.36329,-16.83277 9.96483,-23.97977 3.48699,-9.57952 5.88391,-17.25095 8.62571,-27.60688 1.61362,-6.09473 1.84074,-7.57784 1.11799,-7.3005 -5.66714,2.17469 -52.07309,9.28923 -60.59074,9.28923 -0.45195,0 -4.68211,2.50739 -9.40033,5.57197 -4.71823,3.06458 -12.60005,7.91755 -17.51516,10.78437 -4.9151,2.86682 -9.1614,5.42343 -9.43621,5.68135 -0.58082,0.54513 11.9987,7.558 22.46526,12.52406 14.32084,6.79479 27.33097,11.78541 41.18609,15.79873 11.9309,3.45595 11.69881,3.46898 13.58256,-0.76256 z m -180.10049,1.6194 c 6.69635,-0.59005 20.15385,-2.65977 20.6736,-3.17951 0.14382,-0.14382 -0.26339,-1.29286 -0.90495,-2.55338 -1.734,-3.40699 -8.61792,-21.08299 -10.86957,-27.91002 -1.08071,-3.27674 -3.34886,-11.02956 -5.04034,-17.22847 l -3.07542,-11.27077 -7.26396,-1.98369 c -18.86559,-5.15195 -38.3867,-12.54903 -54.143554,-20.51646 -5.761395,-2.91325 -10.598565,-5.1735 -10.749278,-5.02279 -0.55359,0.55359 -3.119223,12.11059 -3.989173,17.96931 -1.146764,7.72285 -1.1478,20.06922 -0.0022,26.63833 5.578398,31.98891 33.593855,48.73816 75.364885,45.05745 z m 33.48286,-6.20698 c 8.56846,-2.28505 19.27326,-5.94296 29.67516,-10.14024 10.43796,-4.21183 27.39914,-12.17885 27.39914,-12.86995 0,-0.25081 -1.00536,-1.06392 -2.23414,-1.80687 -4.71521,-2.85095 -20.34784,-13.4052 -25.47824,-17.20143 l -5.37097,-3.97425 -10.41695,-1.34003 c -10.33727,-1.32979 -28.9232,-4.53577 -36.30739,-6.26286 -2.11581,-0.49484 -3.92264,-0.82404 -4.01517,-0.73151 -0.0925,0.0925 0.90838,4.17018 2.22426,9.06144 5.306,19.72296 15.86402,47.61569 17.81617,47.06768 0.51075,-0.14341 3.52939,-0.95427 6.70813,-1.80198 z m 69.89708,-29.56937 c 6.9789,-3.86614 22.76865,-13.5182 23.167,-14.16168 0.13161,-0.21257 -9.45384,-0.38648 -21.30095,-0.38648 -11.8471,0 -25.13728,-0.20441 -29.53373,-0.45421 l -7.99355,-0.45422 2.63161,1.90701 c 5.60868,4.06438 25.42239,17.0304 26.17826,17.13097 0.17134,0.0226 3.25449,-1.58884 6.85136,-3.58142 z m 26.30092,-20.12939 c 6.61768,-0.43164 6.67489,-0.44844 10.42599,-3.05497 8.35508,-5.80572 26.70897,-19.90809 26.70897,-20.52206 0,-0.10277 -0.43056,-1.21731 -0.95678,-2.47675 -2.08419,-4.98817 0.15609,-10.80961 5.13795,-13.35117 3.10704,-1.58509 6.32589,-1.49519 9.82109,0.2743 l 2.88455,1.46034 5.70615,-5.28115 c 3.13839,-2.90464 9.096,-8.72266 13.23914,-12.92894 l 7.53299,-7.64777 0.50992,-8.93656 c 0.88919,-15.58355 0.53435,-54.61725 -0.6092,-67.0178 -0.5941,-6.44222 -1.34207,-11.51326 -1.80164,-12.21464 -1.55568,-2.37428 -16.42695,-18.04962 -24.87406,-26.21898 -12.95009,-12.52428 -32.39479,-29.34856 -38.55023,-33.35512 -3.18428,-2.07263 -17.80596,-3.30654 -43.87255,-3.70237 l -20.85198,-0.31666 -7.44713,5.22666 c -23.73329,16.65682 -43.97851,33.69797 -64.1615,54.00711 l -10.84001,10.90777 -0.6666,6.55348 c -1.62307,15.95664 -1.39352,58.70991 0.41412,77.13381 l 0.37813,3.85402 14.94758,14.95571 c 8.22117,8.22564 18.83498,18.30136 23.58625,22.3905 9.26758,7.97605 19.62198,16.40648 22.04352,17.94756 1.36187,0.8667 6.14001,1.39686 22.04352,2.44586 5.73962,0.37861 42.95249,0.2787 49.2518,-0.1322 z m -34.47166,-65.3434 c -11.46221,-2.77964 -21.73675,-11.24215 -26.72965,-22.0156 -2.9756,-6.42061 -3.81165,-10.21023 -3.81165,-17.27735 0,-7.39301 0.84253,-10.97541 4.26115,-18.11825 2.20612,-4.60943 3.49713,-6.41145 7.25601,-10.1281 8.30279,-8.2095 15.66447,-11.41366 27.20066,-11.83905 8.56822,-0.31594 12.46095,0.48996 19.93883,4.12791 6.75233,3.28498 14.12408,10.55206 17.43832,17.19071 6.08154,12.18179 6.08358,25.32743 0.006,37.53356 -1.65835,3.33053 -3.51777,5.76203 -7.30248,9.54924 -5.82567,5.82952 -10.99847,8.86907 -18.2498,10.72365 -5.44664,1.39302 -14.81817,1.51166 -20.00722,0.25326 z m 61.7764,62.84709 c 11.99648,-1.3105 42.22609,-6.97191 44.3995,-8.31515 1.21981,-0.75389 5.31683,-23.12325 7.40546,-40.43315 l 0.3869,-3.20647 -9.41435,8.93881 c -5.17789,4.91636 -10.43781,9.82117 -11.68872,10.8996 -1.81041,1.56079 -2.20194,2.24938 -1.9193,3.37549 0.59735,2.38001 -0.83279,6.23883 -3.18337,8.58941 -2.68265,2.68264 -6.28282,3.81912 -9.38496,2.96258 -2.10133,-0.58022 -2.26956,-0.4939 -7.88472,4.04497 -3.15567,2.5508 -8.5526,6.72336 -11.99318,9.27236 -3.44057,2.549 -6.38964,4.76267 -6.55348,4.91927 -0.16383,0.15663 0.64046,0.13137 1.78732,-0.056 1.14686,-0.18743 4.76616,-0.63369 8.0429,-0.99164 z m -108.13239,-0.16926 c 0,-0.11218 -3.60388,-3.19531 -8.00862,-6.85145 -11.60189,-9.6301 -20.73392,-18.01565 -32.05697,-29.43654 -5.48853,-5.53597 -9.97916,-9.76918 -9.97916,-9.40714 0,3.39566 5.88955,37.1059 6.60421,37.80072 0.75798,0.73696 27.22229,5.73148 39.27014,7.41132 2.12988,0.29699 3.93954,0.57307 4.02146,0.61348 0.0819,0.0405 0.14894,-0.0185 0.14894,-0.13041 z m -49.45128,-9.77523 c -0.001,-0.24576 -0.65559,-3.79804 -1.45405,-7.89397 -1.5312,-7.85477 -4.14626,-25.02265 -4.81465,-31.60821 -0.37342,-3.67937 -0.59428,-4.13127 -3.82408,-7.8254 -8.69066,-9.94004 -21.30898,-26.10859 -26.5306,-33.99513 -1.24746,-1.88413 -2.47069,-3.42569 -2.71828,-3.42569 -0.52452,0 -6.31549,8.86814 -10.36823,15.87758 -2.7579,4.76995 -2.79094,4.88795 -1.86794,6.67284 2.08412,4.03024 0.52577,10.52094 -3.15531,13.14209 -0.95634,0.68098 -2.771348,1.45268 -4.033346,1.71488 -2.031757,0.42216 -2.473503,0.85004 -3.857282,3.73644 -1.411274,2.94374 -5.190129,12.6893 -6.125918,15.79856 -0.329878,1.096 0.635062,1.75473 8.422638,5.74991 15.817098,8.11446 31.525228,14.29043 50.348398,19.79549 9.89907,2.89509 9.98202,2.91389 9.97865,2.26061 z m 217.92052,-2.58109 c 9.09583,-2.72101 21.572,-7.26232 29.3273,-10.6751 10.33229,-4.54681 26.28289,-12.96489 27.11403,-14.3097 0.30151,-0.48788 -4.341,-14.4522 -6.38387,-19.20212 -1.14756,-2.66822 -1.34686,-2.82991 -3.48803,-2.82991 -2.95791,0 -5.22488,-0.88853 -7.31681,-2.86781 -2.40742,-2.2778 -3.37249,-4.42105 -3.37249,-7.48981 0,-3.26373 0.81581,-5.55042 2.68125,-7.5155 l 1.41391,-1.48943 -4.4805,-8.04291 c -2.46427,-4.42359 -4.79319,-8.36603 -5.17537,-8.76096 -0.53577,-0.55365 -1.92279,0.87388 -6.05682,6.23347 -6.72614,8.72017 -12.90986,16.09558 -20.52771,24.48375 l -5.94537,6.54655 -0.93727,8.23894 c -1.15492,10.15226 -3.57598,26.02618 -5.10565,33.47584 -1.33422,6.49774 -1.34493,6.63684 -0.51094,6.63684 0.34877,0 4.29272,-1.09446 8.76433,-2.43214 z m -287.234091,-37.72644 3.070275,-7.69159 -2.004077,-1.89009 c -2.428439,-2.29031 -3.242816,-4.271 -3.242816,-7.887 0,-6.31099 5.226113,-10.77845 11.820372,-10.10446 l 3.371787,0.34466 2.97885,-5.12332 c 1.63837,-2.81783 4.64789,-7.69597 6.68784,-10.84032 2.03994,-3.14435 3.71554,-6.04377 3.72356,-6.44314 0.008,-0.3994 -1.15937,-2.54415 -2.59419,-4.76617 -11.205484,-17.35311 -22.246547,-40.07312 -28.122658,-57.87007 -1.476403,-4.47156 -2.804001,-8.48046 -2.950221,-8.90867 -0.35347,-1.03512 -11.128146,6.3016 -17.67765,12.0371 -14.616122,12.79958 -22.909942,25.01332 -26.442911,38.94071 -2.032335,8.01169 -2.017494,17.92293 0.03932,26.13196 4.595621,18.34353 18.6317,35.63502 41.800451,51.4953 l 5.280251,3.61473 0.595771,-1.67402 c 0.327674,-0.92071 1.977393,-5.13523 3.666045,-9.36561 z m 354.637701,5.48719 c 7.47104,-5.60712 17.09601,-14.99192 21.87695,-21.33106 11.35038,-15.04967 15.39068,-32.71881 11.25571,-49.22364 -0.90224,-3.60132 -2.74457,-8.45473 -4.74744,-12.50662 l -3.27304,-6.62148 -2.4444,-0.32786 c -5.49925,-0.73761 -9.09189,-5.07755 -9.03939,-10.91969 l 0.028,-3.13208 -4.56794,-4.08517 c -5.69817,-5.09608 -10.20659,-8.74777 -10.42247,-8.44202 -0.0905,0.12821 -1.33546,3.04812 -2.76653,6.4887 -5.83663,14.03237 -13.56056,28.30403 -23.63461,43.67015 -3.39427,5.17734 -6.1714,9.68286 -6.1714,10.01228 0,0.3294 1.43619,3.06394 3.19153,6.0767 1.75534,3.01277 4.2248,7.39278 5.48767,9.73336 2.20739,4.09112 2.39528,4.26918 4.86164,4.60723 5.46888,0.74959 9.0743,4.25775 9.5589,9.301 0.35567,3.70169 -0.0835,5.42553 -1.94646,7.63949 l -1.48636,1.76644 1.41616,3.20217 c 0.77888,1.76118 2.56181,6.61698 3.96207,10.79066 1.40026,4.17368 2.68166,7.58851 2.84757,7.58851 0.16593,0 2.87214,-1.92919 6.01384,-4.28709 z M 148.16862,254.38055 c -0.68734,-11.52751 -0.4022,-47.87401 0.44564,-56.80251 l 0.36622,-3.85679 -4.66219,5.34622 c -5.65267,6.482 -13.99436,16.97853 -19.80681,24.92332 l -4.29773,5.87438 3.37214,4.84949 c 8.23474,11.84244 24.41496,32.37704 25.02823,31.76377 0.14322,-0.14316 -0.0572,-5.58724 -0.44546,-12.09788 z m 235.95967,-4.39039 c 3.16855,-3.76825 8.3479,-10.23419 11.50969,-14.36876 l 5.74871,-7.51738 -5.81766,-8.56843 c -8.35911,-12.31155 -22.64777,-31.2019 -23.19055,-30.65912 -0.11761,0.11761 0.12803,4.19776 0.54584,9.06705 0.83505,9.73224 1.08248,52.28557 0.34942,60.08954 l -0.44772,4.76617 2.77066,-2.97886 c 1.52387,-1.63837 5.3631,-6.06196 8.53164,-9.83021 z M 121.61041,219.28909 c 5.48373,-7.61657 14.4256,-18.72569 21.958,-27.27999 l 6.20133,-7.04265 1.04198,-8.71895 c 1.44141,-12.06142 4.15483,-27.75671 6.84656,-39.60273 1.38215,-6.08265 2.0181,-9.97801 1.62872,-9.9762 -1.43377,0.007 -19.54268,4.97682 -27.38495,7.51606 -4.62239,1.49668 -12.55984,4.35135 -17.63879,6.3437 -10.19062,3.99756 -29.126168,13.27172 -29.595671,14.49522 -0.431398,1.12415 5.720698,18.9861 9.642109,27.99493 1.841628,4.23087 5.223253,11.31179 7.514722,15.73539 4.46937,8.62798 14.78694,26.22208 15.36506,26.20134 0.19279,-0.007 2.1822,-2.55666 4.42093,-5.66612 z m 288.60188,-4.30047 c 9.6561,-14.77593 18.34459,-31.06092 23.66796,-44.36127 l 2.20307,-5.50432 -1.67853,-1.3384 c -5.64228,-4.49901 -24.30771,-14.45064 -37.794,-20.15022 -7.21196,-3.04792 -31.68833,-11.60687 -33.19261,-11.60687 -0.39309,0 -0.31779,1.22199 0.21096,3.42569 1.84835,7.70317 4.4675,21.93204 5.89451,32.02267 0.83411,5.89813 1.80839,11.2273 2.16505,11.8426 0.35669,0.6153 2.62165,3.45743 5.03329,6.31585 6.0504,7.17127 18.1925,23.4616 23.21336,31.14398 2.29372,3.5096 4.33986,6.38583 4.54698,6.39162 0.20709,0.006 2.7856,-3.67581 5.72996,-8.18133 z M 184.47693,151.15208 c 10.53826,-9.25121 26.05545,-21.67526 35.44726,-28.38134 l 7.06086,-5.0417 -2.89047,0.002 c -3.78782,0.003 -20.65163,1.54395 -29.70015,2.71358 -9.21012,1.19053 -27.86787,4.46015 -28.45025,4.98569 -1.50363,1.35684 -9.97697,45.30019 -9.97697,51.7413 0,0.4675 4.49063,-3.50663 9.97916,-8.83145 5.48854,-5.32482 13.8273,-13.05964 18.53056,-17.1885 z m 179.3207,12.89814 c -1.39196,-9.12933 -3.03185,-17.79842 -5.062,-26.75964 l -1.57457,-6.95025 -2.44369,-0.6551 c -10.74762,-2.8812 -41.18732,-8.78402 -42.66444,-8.27342 -0.30188,0.10438 1.90115,2.20047 4.89567,4.65803 13.46038,11.04671 30.76452,27.2325 40.68702,38.05747 3.60441,3.93225 6.71577,7.16564 6.91412,7.18532 0.19833,0.0197 -0.14012,-3.2484 -0.75211,-7.26241 z m 75.95145,-10.27704 c 7.87931,-27.82669 6.2583,-49.90707 -4.86654,-66.289139 -3.29861,-4.857415 -10.34532,-11.25072 -15.87693,-14.404737 -6.13845,-3.50004 -16.37612,-6.902129 -24.21078,-8.045526 -8.20013,-1.196731 -23.35736,-1.189373 -32.78522,0.01608 -7.16315,0.91576 -20.62945,3.499331 -21.19683,4.066714 -0.15573,0.155734 1.1127,3.286825 2.81871,6.95803 5.89169,12.678473 10.83377,26.080178 15.46299,41.931728 1.24066,4.24833 2.6264,7.91257 3.07941,8.14274 0.45302,0.23015 5.64941,1.94009 11.54754,3.79979 22.65844,7.14431 46.17266,17.92462 60.47073,27.7234 1.80221,1.23509 3.44817,2.06954 3.6577,1.85432 0.20953,-0.21537 1.06417,-2.80434 1.89922,-5.7534 z M 84.802394,148.1648 c 0.31129,-0.29938 4.319338,-2.40901 8.906773,-4.68807 16.581663,-8.23786 35.511293,-15.02547 56.379623,-20.21608 9.36003,-2.32813 11.47811,-3.04825 11.8648,-4.03389 0.25892,-0.65991 1.72625,-5.22128 3.26078,-10.13639 4.78065,-15.312446 11.40576,-31.507283 17.58542,-42.986898 l 2.93563,-5.453334 -4.30917,-0.955753 c -23.51082,-5.214562 -46.09247,-5.116676 -61.80105,0.267918 -4.76353,1.632835 -12.25484,5.301126 -15.98117,7.825538 -7.615164,5.15891 -15.731332,15.57343 -19.301172,24.766906 -1.659496,4.273735 -1.711947,4.639305 -0.746692,5.204195 2.221159,1.29989 4.534591,3.505148 5.368235,5.117238 1.118011,2.16199 1.122908,7.27809 0.0089,9.4321 -1.394074,2.69584 -4.750747,5.25798 -7.496208,5.72182 l -2.498097,0.42204 0.40435,6.34088 c 0.439977,6.89914 1.818042,17.36098 2.81678,21.38409 0.611309,2.46245 1.445722,3.09984 2.602113,1.9877 z M 355.34927,123.42613 c -0.18076,-0.47101 -0.63171,-2.01257 -1.00214,-3.42568 -4.34019,-16.55673 -17.33954,-49.337294 -19.56503,-49.337294 -1.75635,0 -16.44521,4.876646 -25.99968,8.631801 -9.80332,3.852951 -21.43083,9.024253 -29.75177,13.232015 l -4.7294,2.39157 8.00614,5.376018 c 4.40337,2.95681 10.79293,7.39675 14.199,9.86653 6.09387,4.41872 6.27483,4.50151 11.31965,5.17885 13.49776,1.81227 44.30897,7.72932 45.29165,8.69791 0.13655,0.13458 0.76843,0.24468 1.40423,0.24468 0.76042,0 1.04353,-0.29306 0.82735,-0.8564 z m -160.65696,-8.35235 c 10.70165,-1.33589 18.90791,-2.05123 35.0295,-3.05357 l 6.13462,-0.38141 9.35542,-5.83006 c 5.14548,-3.20654 11.45509,-7.026668 14.02135,-8.489178 l 4.66592,-2.6591 -6.15535,-3.583965 C 248.4332,85.6554 236.48485,79.529202 226.86393,75.24368 212.4508,68.823529 192.65577,61.833285 190.85025,62.526125 c -1.04177,0.399762 -7.0668,12.304972 -11.65576,23.0313 -2.85774,6.679723 -11.90763,32.122935 -11.90763,33.477565 0,0.13881 3.55228,-0.36938 7.89396,-1.12931 4.34168,-0.75992 13.12185,-2.03428 19.51149,-2.8319 z m 95.9191,-2.71436 c -2.42751,-1.91137 -20.00995,-13.637938 -21.04219,-14.034048 -0.83651,-0.321 -15.54034,7.772288 -21.70269,11.945578 l -1.93457,1.31015 16.82884,0.45749 c 9.25587,0.25166 18.83957,0.65323 21.29713,0.89244 2.45755,0.23921 5.27257,0.47233 6.25559,0.51803 l 1.78731,0.0831 z M 279.65367,86.505892 c 16.01294,-7.970179 36.70062,-16.279156 49.20402,-19.762234 l 3.98946,-1.111345 -1.8538,-3.293344 c -1.0196,-1.811339 -3.44967,-5.779459 -5.40016,-8.818045 l -3.54636,-5.524707 -2.16392,0.435568 c -4.8655,0.979322 -8.15293,-0.0793 -11.26967,-3.629066 -2.56797,-2.924758 -3.08544,-6.704655 -1.44836,-10.579525 l 1.22524,-2.900051 -4.86791,-4.245313 c -9.58994,-8.363419 -19.23769,-13.723104 -29.52156,-16.400331 -8.13667,-2.1182387 -18.23766,-2.1132097 -26.40735,0.01311 -18.26117,4.752887 -35.64122,18.759571 -49.9962,40.29224 l -4.15711,6.23573 8.52012,2.777316 c 18.63631,6.074908 38.96892,15.33116 58.61744,26.685103 4.55852,2.634159 8.45108,4.799446 8.65013,4.811749 0.19905,0.01251 4.89074,-2.231781 10.42599,-4.986864 z"
       id="path1" />
  </g>
</svg>
